# xmcd CD database file
#
# Track frame offsets:
#	150
#	9634
#	23590
#	36529
#	37737
#	49227
#	62347
#	72179
#	88531
#	100119
#	110676
#	121344
#	132500
#	142081
#	152986
#	164741
#	177053
#	187930
#	201287
#	212707
#	225646
#	237652
#	249184
#	259866
#
# Disc length: 3647 seconds
#
# Revision: 1
# Processed by: cddbd v1.5.2PL0 Copyright (c) Steve Scherf et al.
# Submitted via: CDex 1.51
#
DISCID=530e3d18
DTITLE=Xavier Cugat and son Orchestre - Conversion disque VINYLE ~ disque COMPACT}
DYEAR=1972
DGENRE=Ambiance
TTITLE0=Brazil  (Aquarela de Brasil)   . . . . .  [Disque 1 - Face 1]
TTITLE1=Maria-La-O
TTITLE2=Frenesi
TTITLE3=Poinciana
TTITLE4=Siboney  {Zarzuelas de Ernesto Lecuona - 7 aout 1896 - 1963}
TTITLE5=Perfida
TTITLE6=El Cumbancheros   . . . . . . . . . . .   [Disque 1 - Face 2]
TTITLE7=Besame Mucho
TTITLE8=Say ''Si Si''  (Para vigo me voy)
TTITLE9=Sweet and Gentle
TTITLE10=Taboo
TTITLE11=Amor
TTITLE12=Tico Tico   . . . . . . . . . . . . . . . . .   [Disque 2 - Face 1]
TTITLE13=Always In My Heart
TTITLE14=Watermelon Man
TTITLE15=The Breeze and I  (Andalucia)
TTITLE16=The Peanut Vendor  (El Manisero)
TTITLE17=Your  (Quiereme mucho)
TTITLE18=Tea for Two   . . . . . . . . . . . . . . .  [Disque 2 - Face 2]
TTITLE19=Mama Inez
TTITLE20=Jungle Drums  (Canto Karabali)
TTITLE21=Rum and Coca Cola
TTITLE22=Sway  (Quien sera)
TTITLE23=Tequila
EXTD=YEAR: 1972
EXTT0=
EXTT1=
EXTT2=
EXTT3=
EXTT4=
EXTT5=
EXTT6=
EXTT7=
EXTT8=
EXTT9=
EXTT10=
EXTT11=
EXTT12=
EXTT13=
EXTT14=
EXTT15=
EXTT16=
EXTT17=
EXTT18=
EXTT19=
EXTT20=
EXTT21=
EXTT22=
EXTT23=
PLAYORDER=
